<svg width="107" height="107" viewBox="0 0 107 107" fill="none" xmlns="http://www.w3.org/2000/svg">
<g clip-path="url(#clip0)">
<path d="M33.0882 20.4118L19.9448 33.5552C18.7251 34.7749 18.7251 36.7548 19.9448 37.9746L33.097 51.1268C33.6914 51.7212 34.5013 52.0516 35.3421 52.0416L48.3396 51.8958C49.1892 51.8858 49.9571 51.5378 50.514 50.9809C51.0708 50.4241 51.4199 49.6551 51.4288 48.8066L51.5746 35.8091C51.5846 34.9683 51.2542 34.1584 50.6598 33.564L37.5076 20.4118C36.2879 19.1921 34.308 19.1921 33.0882 20.4118ZM45.3112 37.0542L45.214 45.681L36.5873 45.7782L26.574 35.7649L35.2979 27.041L45.3112 37.0542Z" fill="#FF4655"/>
<path d="M70.7251 54.9595L57.7264 55.1043C56.0272 55.122 54.6549 56.4942 54.6373 58.1934L54.4925 71.1921C54.4826 72.0329 54.8129 72.8427 55.4073 73.4371L68.5584 86.5882C69.7782 87.808 71.7581 87.808 72.9778 86.5882L86.1212 73.4448C87.341 72.2251 87.341 70.2452 86.1212 69.0254L72.9701 55.8744C72.3757 55.2799 71.5658 54.9496 70.7251 54.9595ZM70.7681 79.9591L60.7559 69.9469L60.8521 61.3191L69.4799 61.223L79.4921 71.2351L70.7681 79.9591Z" fill="#FF4655"/>
<path d="M48.3385 55.1032L35.3399 54.9584C34.4991 54.9485 33.6892 55.2788 33.0948 55.8732L19.9437 69.0243C18.724 70.2441 18.724 72.224 19.9437 73.4437L33.0871 86.5871C34.3079 87.808 36.2867 87.8069 37.5065 86.5871L50.6576 73.436C51.252 72.8416 51.5823 72.0317 51.5724 71.1909L51.4288 58.1934C51.41 56.4953 50.0366 55.1219 48.3385 55.1032ZM45.309 69.9458L35.2968 79.958L26.5739 71.2351L36.5861 61.223L45.2139 61.3191L45.309 69.9458Z" fill="#FF4655"/>
<path d="M68.5584 20.4118L55.4073 33.5629C54.8129 34.1573 54.4826 34.9672 54.4925 35.808L54.6373 48.8066C54.656 50.5047 56.0294 51.8781 57.7275 51.8969L70.725 52.0405C71.5658 52.0504 72.3757 51.7201 72.9701 51.1257L86.1212 37.9746C87.3409 36.7548 87.3409 34.7749 86.1212 33.5552L72.9778 20.4118C71.757 19.191 69.7782 19.1921 68.5584 20.4118ZM79.491 35.7638L69.4788 45.776L60.8521 45.681L60.7559 37.0531L70.7681 27.0409L79.491 35.7638Z" fill="#FF4655" stroke="#FF4655"/>
</g>
<defs>
<clipPath id="clip0">
<rect width="75" height="75" fill="white" transform="translate(0 53.5) rotate(-45)"/>
</clipPath>
</defs>
</svg>